<svg xmlns="http://www.w3.org/2000/svg" width="21.857" height="17.156" viewBox="0 0 21.857 17.156"><g transform="translate(0 0)" fill="rgba(255,255,255,0.04)"><path d="M 21.357421875 16.6564998626709 L 0.5000009536743164 16.6564998626709 L 0.5000009536743164 2.27514910697937 L 6.079340934753418 2.27514910697937 L 6.385900974273682 2.27514910697937 L 6.524950981140137 2.001939058303833 L 7.289231300354004 0.5002491474151611 L 14.56904888153076 0.5002491474151611 L 15.33332061767578 2.001939058303833 L 15.47237110137939 2.27514910697937 L 15.7789306640625 2.27514910697937 L 21.357421875 2.27514910697937 L 21.357421875 16.6564998626709 Z" stroke="none"/><path d="M 20.857421875 16.1564998626709 L 20.857421875 2.77514910697937 L 15.7789306640625 2.77514910697937 L 15.16581058502197 2.77514910697937 L 14.88771057128906 2.228729248046875 L 14.26248645782471 1.000249147415161 L 7.595782279968262 1.000249147415161 L 6.970551013946533 2.228729248046875 L 6.692461013793945 2.77514910697937 L 6.079340934753418 2.77514910697937 L 1.000000953674316 2.77514910697937 L 1.000000953674316 16.1564998626709 L 20.857421875 16.1564998626709 M 21.857421875 17.1564998626709 L 9.37499976316758e-07 17.1564998626709 L 9.37499976316758e-07 1.77514910697937 L 6.079340934753418 1.77514910697937 L 6.982670783996582 0.0002491406339686364 L 14.87561130523682 0.0002491406339686364 L 15.7789306640625 1.77514910697937 L 21.857421875 1.77514910697937 L 21.857421875 17.1564998626709 Z" stroke="none"/></g><g transform="translate(5.429 4.156)" fill="rgba(255,255,255,0.04)"><path d="M 5.5 10.5 C 2.742990016937256 10.5 0.5 8.257010459899902 0.5 5.5 C 0.5 2.742990016937256 2.742990016937256 0.5 5.5 0.5 C 8.257010459899902 0.5 10.5 2.742990016937256 10.5 5.5 C 10.5 8.257010459899902 8.257010459899902 10.5 5.5 10.5 Z" stroke="none"/><path d="M 5.5 1 C 3.01869010925293 1 1 3.01869010925293 1 5.5 C 1 7.98130989074707 3.01869010925293 10 5.5 10 C 7.98130989074707 10 10 7.98130989074707 10 5.5 C 10 3.01869010925293 7.98130989074707 1 5.5 1 M 5.5 0 C 8.537569999694824 0 11 2.462430000305176 11 5.5 C 11 8.537569999694824 8.537569999694824 11 5.5 11 C 2.462430000305176 11 0 8.537569999694824 0 5.5 C 0 2.462430000305176 2.462430000305176 0 5.5 0 Z" stroke="none"/></g></svg>